<svg width="188" height="262" viewBox="0 0 188 262" fill="none" xmlns="http://www.w3.org/2000/svg">
<path d="M185.737 61.2076C179.147 21.6683 145.099 1.34955 114.621 1.34955C107.116 0.617338 88.2611 0.855306 72.8847 7.66485C53.6643 16.1768 29.7759 43.0855 35.5421 85.9197C41.3082 128.754 62.9999 166.92 64.6474 182.846C66.2949 198.771 55.3117 205.087 48.4473 206.734C41.5828 208.382 27.0306 198.771 25.3831 205.087C23.7356 211.402 35.8171 222.66 46.8002 224.856C57.7833 227.053 82.7696 219.09 88.2615 222.66C93.7534 226.229 85.5154 243.528 82.7696 253.413C80.0239 263.297 97.5969 256.158 105.834 249.843C114.072 243.528 121.485 230.348 126.153 230.622C130.821 230.897 125.878 247.646 123.682 256.158C121.485 264.67 139.058 261.924 150.865 243.528C162.672 225.131 161.848 201.792 164.045 182.846C166.241 163.9 192.326 100.747 185.737 61.2076Z" fill="#FFE816"/>
<path fill-rule="evenodd" clip-rule="evenodd" d="M114.543 2.13525C107.111 1.41019 88.4085 1.65285 73.2028 8.38679C54.2818 16.7661 30.6055 43.3513 36.3219 85.8162C39.1927 107.142 46.0311 127.325 52.3757 144.198C53.733 147.808 55.0712 151.275 56.3427 154.569C58.0355 158.955 59.6102 163.035 60.9551 166.739C63.3086 173.221 65.007 178.676 65.4301 182.766C66.2758 190.941 63.877 196.725 60.3239 200.673C56.7931 204.596 52.1743 206.651 48.6302 207.502C46.7182 207.961 44.3626 207.625 41.9928 207.051C40.302 206.641 38.5182 206.086 36.7982 205.551C36.0952 205.333 35.4029 205.117 34.732 204.916C32.3692 204.209 30.2896 203.689 28.7216 203.701C27.9467 203.707 27.3748 203.844 26.973 204.087C26.5963 204.315 26.3039 204.676 26.1445 205.287C25.8053 206.587 26.1518 208.258 27.1816 210.157C28.202 212.039 29.8393 214.041 31.8896 215.94C35.9973 219.744 41.6369 223.022 46.9538 224.085C49.5799 224.611 53.1041 224.536 57.0634 224.155C60.7582 223.8 64.7632 223.187 68.6742 222.588C68.9399 222.547 69.2053 222.507 69.4701 222.466C73.6154 221.832 77.6322 221.234 80.9596 221.021C82.6241 220.915 84.1424 220.903 85.4344 221.037C86.7113 221.17 87.8489 221.454 88.6899 222.001C90.4195 223.125 90.9375 225.248 90.8932 227.597C90.8483 229.981 90.2239 232.867 89.3613 235.886C88.4958 238.915 87.3724 242.137 86.3012 245.201L86.2445 245.363C85.1898 248.379 84.1939 251.227 83.5278 253.625C83.2064 254.782 83.2145 255.583 83.3846 256.12C83.5439 256.623 83.8665 256.967 84.3776 257.196C84.9173 257.437 85.6767 257.55 86.6526 257.507C87.62 257.463 88.7463 257.268 89.9815 256.943C94.9463 255.634 101.306 252.323 105.354 249.219C108.857 246.534 112.215 242.573 115.33 238.9C115.803 238.342 116.271 237.79 116.733 237.251C118.464 235.228 120.119 233.368 121.647 232.031C122.413 231.36 123.171 230.8 123.913 230.413C124.653 230.028 125.424 229.792 126.198 229.838C127.07 229.889 127.723 230.347 128.148 231.039C128.547 231.69 128.745 232.54 128.829 233.461C128.997 235.313 128.732 237.784 128.267 240.439C127.514 244.732 126.199 249.701 125.147 253.68C124.893 254.637 124.655 255.537 124.444 256.357C124.198 257.308 124.252 258.011 124.461 258.512C124.664 259 125.05 259.383 125.651 259.64C126.907 260.178 129.036 260.128 131.765 259.19C137.165 257.335 144.377 252.178 150.201 243.104C156.019 234.039 158.742 223.73 160.278 213.28C161.047 208.055 161.517 202.809 161.933 197.671C162.007 196.76 162.079 195.852 162.151 194.948C162.483 190.764 162.808 186.666 163.261 182.757C163.82 177.941 165.885 170.371 168.53 161.191C169.057 159.361 169.608 157.466 170.175 155.512C172.466 147.628 175.032 138.798 177.422 129.554C183.395 106.452 188.223 80.9264 184.958 61.3387C178.443 22.247 144.786 2.13897 114.62 2.13897H114.581L114.543 2.13525ZM114.658 0.563287C107.054 -0.171558 88.0858 0.0724563 72.5648 6.94606C53.0448 15.5906 28.9444 42.8228 34.7603 86.0264C37.6557 107.535 44.5462 127.853 50.9008 144.752C52.2705 148.395 53.6119 151.87 54.8833 155.164C56.5687 159.53 58.1313 163.579 59.474 167.277C61.8312 173.769 63.4621 179.056 63.8628 182.929C64.6645 190.679 62.3955 196.016 59.1527 199.619C55.8877 203.247 51.5828 205.173 48.2624 205.97C46.7422 206.335 44.7046 206.087 42.3638 205.52C40.7245 205.122 39.0195 204.592 37.32 204.063C36.6052 203.841 35.8913 203.619 35.1837 203.407C32.8444 202.707 30.548 202.111 28.7097 202.125C27.7814 202.132 26.8924 202.294 26.1563 202.74C25.3949 203.201 24.8722 203.922 24.6198 204.889C24.1352 206.747 24.6811 208.852 25.7965 210.908C26.9212 212.982 28.6818 215.116 30.8188 217.096C35.0857 221.048 40.9785 224.497 46.6447 225.631C49.5101 226.204 53.2279 226.107 57.2142 225.724C60.9546 225.364 65.0009 224.744 68.8997 224.147C69.17 224.106 69.4395 224.065 69.7082 224.024C73.8688 223.387 77.8147 222.801 81.0601 222.594C82.682 222.49 84.1026 222.483 85.2711 222.605C86.4547 222.728 87.2992 222.976 87.8312 223.322C88.8476 223.983 89.3594 225.361 89.3178 227.567C89.2769 229.74 88.6998 232.466 87.8462 235.453C86.9955 238.43 85.8878 241.609 84.8138 244.681L84.7456 244.876C83.7001 247.865 82.6897 250.755 82.0096 253.203C81.6445 254.518 81.585 255.656 81.8824 256.596C82.1908 257.57 82.8549 258.24 83.7339 258.634C84.5843 259.014 85.6182 259.13 86.7232 259.081C87.8365 259.031 89.0785 258.81 90.383 258.466C95.5777 257.097 102.123 253.682 106.313 250.47C109.962 247.672 113.444 243.563 116.546 239.903C117.016 239.348 117.478 238.804 117.93 238.275C119.665 236.248 121.253 234.47 122.685 233.216C123.4 232.591 124.052 232.117 124.64 231.811C125.231 231.504 125.713 231.387 126.106 231.411C126.401 231.428 126.615 231.553 126.805 231.863C127.02 232.214 127.185 232.784 127.259 233.604C127.408 235.237 127.176 237.536 126.715 240.167C125.975 244.386 124.684 249.265 123.632 253.243C123.376 254.211 123.134 255.125 122.918 255.963C122.614 257.14 122.629 258.212 123.007 259.119C123.39 260.038 124.11 260.694 125.031 261.089C126.822 261.855 129.412 261.665 132.277 260.68C138.066 258.692 145.544 253.277 151.527 243.955C157.516 234.623 160.285 224.064 161.837 213.509C162.614 208.231 163.087 202.94 163.503 197.798C163.578 196.881 163.65 195.969 163.722 195.062C164.054 190.879 164.377 186.817 164.826 182.938C165.366 178.281 167.386 170.852 170.044 161.627C170.569 159.804 171.119 157.912 171.686 155.961C173.977 148.076 176.551 139.218 178.947 129.948C184.919 106.852 189.838 81.0313 186.513 61.0797C179.851 21.1094 145.439 0.580285 114.658 0.563287Z" fill="#563E1B"/>
<path d="M79.7477 85.9218H106.656V86.471C114.07 85.1896 129.336 83.3957 131.094 86.471C133.29 90.3151 131.094 99.1016 128.897 104.319C126.7 109.536 122.856 115.851 110.775 116.675C98.6934 117.498 91.8292 113.654 85.5139 106.241C80.4617 100.31 79.5647 90.2235 79.7477 85.9218Z" fill="white"/>
<path d="M140.156 83.4503L140.156 91.4131C136.586 90.0402 124.834 87.2395 106.383 87.0198C87.9309 86.8002 75.6298 89.8571 71.7857 91.4131L71.7857 83.4503C78.5587 82.9927 94.6856 82.0774 105.01 82.0774C115.334 82.0774 132.742 82.9927 140.156 83.4503Z" fill="black"/>
<path fill-rule="evenodd" clip-rule="evenodd" d="M122.306 114.135C118.735 116.485 114.058 117.895 108.031 117.895C95.9428 117.895 88.4439 112.502 84.0431 105.726C79.6782 99.0054 78.3888 90.9782 78.5298 85.6226L80.4199 85.6723C80.2863 90.7506 81.523 98.3744 85.6289 104.696C89.6988 110.963 96.6153 116.004 108.031 116.004C113.756 116.004 118.056 114.668 121.267 112.556C124.479 110.443 126.665 107.511 128.093 104.217C130.966 97.5933 130.741 89.5713 129.621 84.1928L131.472 83.8071C132.639 89.4117 132.909 97.8645 129.828 104.969C128.28 108.54 125.877 111.786 122.306 114.135Z" fill="black"/>
<path d="M108.239 110.633C93.485 110.633 89.1379 94.0961 88.8086 85.8279L123.058 84.8223C124.266 93.4257 122.993 110.633 108.239 110.633Z" fill="black"/>
<path d="M123.406 92.9407C123.406 95.585 121.262 97.7286 118.618 97.7286C115.974 97.7286 113.83 95.585 113.83 92.9407C113.83 90.2964 115.974 88.1528 118.618 88.1528C121.262 88.1528 123.406 90.2964 123.406 92.9407Z" fill="white"/>
<path d="M100.341 103.219C100.341 105.19 98.7426 106.788 96.7712 106.788C94.7998 106.788 93.2017 105.19 93.2017 103.219C93.2017 101.248 94.7998 99.6494 96.7712 99.6494C98.7426 99.6494 100.341 101.248 100.341 103.219Z" fill="white"/>
<path d="M28.6847 137.646C28.4656 135.839 29.7526 134.197 31.5591 133.978C33.3656 133.759 35.0076 135.046 35.2266 136.853L47.5113 238.179C47.7304 239.985 46.4434 241.627 44.6369 241.847C42.8304 242.066 41.1884 240.779 40.9694 238.972L28.6847 137.646Z" fill="#796B5F"/>
<path fill-rule="evenodd" clip-rule="evenodd" d="M27.9025 137.74C27.6311 135.501 29.2258 133.467 31.4642 133.195C33.7027 132.924 35.7374 134.518 36.0087 136.757L48.2934 238.083C48.5648 240.321 46.9702 242.356 44.7317 242.627C42.4933 242.899 40.4586 241.304 40.1872 239.066L27.9025 137.74ZM31.6539 134.759C30.2793 134.926 29.3001 136.175 29.4668 137.55L41.7515 238.876C41.9181 240.251 43.1675 241.23 44.5421 241.063C45.9167 240.897 46.8959 239.647 46.7292 238.273L34.4445 136.946C34.2779 135.572 33.0285 134.593 31.6539 134.759Z" fill="#4E4231"/>
<path d="M24.5577 206.186C23.1848 199.047 27.3035 193.007 31.6967 191.359C37.1888 188.888 47.0726 199.597 47.8964 202.068C48.7201 204.539 45.4252 207.559 41.8556 210.031C38.2861 212.502 25.9306 213.326 24.5577 206.186Z" fill="#C4C4C4"/>
<path d="M24.5577 206.186C23.1848 199.047 27.3035 193.007 31.6967 191.359C37.1888 188.888 47.0726 199.597 47.8964 202.068C48.7201 204.539 45.4252 207.559 41.8556 210.031C38.2861 212.502 25.9306 213.326 24.5577 206.186Z" fill="#FFE600"/>
<path fill-rule="evenodd" clip-rule="evenodd" d="M47.8382 200.349C48.207 200.887 48.504 201.399 48.6433 201.817C49.1957 203.474 48.3221 205.147 47.1233 206.557C45.8896 208.009 44.1068 209.428 42.3036 210.676C41.281 211.384 39.7159 211.926 37.9838 212.249C36.2343 212.575 34.2367 212.691 32.3026 212.494C28.5084 212.108 24.5743 210.445 23.7836 206.333C22.3447 198.851 26.6321 192.43 31.3965 190.628C33.0481 189.896 34.9339 190.183 36.725 190.91C38.5383 191.647 40.3838 192.884 42.0467 194.249C43.7148 195.619 45.2314 197.144 46.387 198.489C46.9649 199.161 47.4586 199.796 47.8382 200.349ZM36.1322 192.37C34.5082 191.711 33.1083 191.586 32.0195 192.076L31.9965 192.086L31.9729 192.095C27.96 193.6 24.0263 199.252 25.3309 206.036C25.9131 209.063 28.8432 210.558 32.4623 210.927C34.2349 211.107 36.0813 211 37.6953 210.7C39.3267 210.396 40.6446 209.908 41.4067 209.381C43.173 208.158 44.8225 206.831 45.9227 205.537C47.0579 204.201 47.4199 203.129 47.1485 202.315C47.0818 202.115 46.8898 201.752 46.5389 201.241C46.1989 200.745 45.7424 200.156 45.192 199.516C44.0911 198.235 42.6391 196.774 41.0467 195.467C39.4492 194.155 37.7425 193.024 36.1322 192.37Z" fill="#563E1B"/>
<path d="M0.583093 145.315C0.327399 143.242 1.80049 141.354 3.87333 141.099L62.4198 133.877C64.4926 133.621 66.3803 135.094 66.6359 137.167L71.8419 179.37C72.0976 181.443 70.6245 183.331 68.5517 183.586L10.0053 190.808C7.93242 191.064 6.04477 189.591 5.78907 187.518L0.583093 145.315Z" fill="white"/>
<path fill-rule="evenodd" clip-rule="evenodd" d="M62.6127 135.44L4.06624 142.662C2.85708 142.812 1.99778 143.913 2.14693 145.122L7.35291 187.325C7.50207 188.534 8.6032 189.394 9.81236 189.245L68.3588 182.023C69.5679 181.873 70.4272 180.772 70.2781 179.563L65.0721 137.36C64.923 136.151 63.8218 135.291 62.6127 135.44ZM3.87333 141.099C1.80049 141.354 0.327399 143.242 0.583093 145.315L5.78907 187.518C6.04477 189.591 7.93242 191.064 10.0053 190.808L68.5517 183.586C70.6245 183.331 72.0976 181.443 71.8419 179.37L66.6359 137.167C66.3803 135.094 64.4926 133.621 62.4198 133.877L3.87333 141.099Z" fill="#3D3D3D"/>
<path d="M37.3987 174.582L32.6006 175.083L31.5568 165.103L22.2005 166.082L23.2443 176.062L18.4462 176.564L16.0107 153.277L20.8088 152.775L21.7957 162.211L31.152 161.233L30.1651 151.797L34.9632 151.295L37.3987 174.582Z" fill="#474747"/>
<path d="M46.707 173.608L41.9089 174.11L39.4735 150.823L44.2716 150.321L46.707 173.608Z" fill="#474747"/>
<path d="M54.8198 165.532L50.9813 165.934L48.7498 149.853L53.6758 149.338L54.8198 165.532ZM53.1648 168.26C53.9432 168.179 54.5909 168.343 55.108 168.752C55.6358 169.16 55.937 169.722 56.0117 170.436C56.0853 171.14 55.9062 171.746 55.4743 172.255C55.0531 172.762 54.4533 173.057 53.675 173.138C52.9073 173.218 52.2596 173.054 51.7318 172.646C51.2147 172.237 50.9194 171.68 50.8458 170.976C50.7722 170.273 50.946 169.667 51.3672 169.159C51.7979 168.64 52.3971 168.34 53.1648 168.26Z" fill="#474747"/>
</svg>
